<svg version="1.2" xmlns="http://www.w3.org/2000/svg" viewBox="0 0 431 600" width="431" height="600">
	<title>354210785_3e1e9bc1-ef54-4159-a0ce-1f4fec26a67c</title>
	<style>
		.s0 { fill: #c0a8b7 } 
		.s1 { fill: #f3a370 } 
		.s2 { fill: #9cba4e } 
		.s3 { fill: #cce070 } 
		.s4 { fill: #ed586e } 
		.s5 { fill: #d77e56 } 
		.s6 { fill: #edae84 } 
		.s7 { fill: #f992aa } 
		.s8 { fill: #4a0630 } 
		.s9 { fill: #dadee0 } 
		.s10 { fill: #ff9d47 } 
		.s11 { fill: #ffffff } 
		.s12 { opacity: .94;fill: #ffb55b } 
		.s13 { fill: #c7543a } 
	</style>
	<g id="Layer_1">
	</g>
	<g id="Layer_2">
		<g>
			<path fill-rule="evenodd" class="s0" d="m603.7 511.5c-80.3 0-145.2-13.8-145.2-31 0-17.1 64.9-31 145.2-31 80.3 0 145.2 13.9 145.2 31 0 17.2-64.9 31-145.2 31z"/>
			<g>
				<path class="s1" d="m676.5 210.4c12-11.6 10.3-35.4 0.4-39.1-5.8-2.1-15.8 4.5-25 11.5-3.9-10.2-9.2-21.6-14.8-22.8-6.3-1.3-15.3 7.5-19.7 16.9-63.3-15.5-121 10.2-128 24.4-4.1 8.3-4.4 47.5 9.9 63.2-8.2 6.5-16.5 15-17.7 19.9-1.6 6.2 5.4 7.2 11.8 2.1-9.1 12.3-12.4 22.1-6.3 25.6 4.2 2.5 14.3-2.2 23.7-10-2.4 33.2-22 51.2-33.4 104-2.6 12.3-2.8 29.2 1.7 42.9-3.1-7.3-8.3-15.1-15-11.6-8.6 4.6 2.3 35.5 13.8 36h45q0.1 0.7 0.4 1.4c3.2 7.8 37.7 6.7 45.9-1.4h9q0.1 0.6 0.5 1.4c3 6.8 28.5 7 42.8-1.4h103.4c21.8 1.1 33.9-27.9 34.8-49.3 2.6-59.6-38.1-152.2-83.2-213.7zm-196.7 240.8q-0.4-1-0.7-2.1 0.4 0.9 0.7 1.8z"/>
				<path class="s2" d="m508.1 257.3c-9.7 5.4-18.1 13-24.6 22-1.7 2.3-3.2 5.4-1.8 7.8 0.8 1.5 2.5 2.3 4.2 2.5 1.6 0.1 3.3-0.2 4.9-0.6-3.3 4.7-5.3 10.3-5.6 15.9-0.2 2-0.1 4.1 1 5.7 1.4 2 4 2.8 6.4 2.5 2.4-0.2 4.6-1.3 6.6-2.5 7.3-4.1 14.1-9.3 19.9-15.3-1 2.7-2 5.8-0.4 8.1 1.6 2.4 5.2 2.6 7.7 1.2 2.5-1.4 4.1-3.9 5.5-6.4 4.3-7.6 7.7-15.8 10.1-24.3 0.2-0.7 0.4-1.5 0-2.1-0.5-0.7-1.5-0.7-2.4-0.7q-7.5 0.2-15.1 0.3c-2.2 0.1-4.5 0.1-6.7-0.6-2.7-0.9-4.9-3.1-6.5-5.6-1.5-2.5-2.5-5.3-3.2-7.9z"/>
				<path class="s3" d="m490.1 307.3c-3.6-5.3 9.4-22.9 17.6-29.8 3.7-3.1 10-3.3 12.4-1.3 4.8 4-2.4 13.7-9.3 20.4-5 4.8-17.9 14.9-20.7 10.7z"/>
				<path class="s3" d="m586 339.1c0.9-1.5 2.1-2.9 3.6-4z"/>
				<path class="s3" d="m524.9 302.4c-3.5 0.3-2.8-10.2-0.6-17.8 2.9-10.2 10.3-9.3 12.2-6.2 3.6 5.6-6.2 23.6-11.6 24z"/>
				<path class="s4" d="m565.6 140.4c3.1-0.3 16.2-5.1 23.3-20.6 5.9-12.8 0.1-23.8-9-25.1-15.4-2.2-17.8 15.8-17.8 15.8 0 0-6.5-13.9-19.4-11.5-13.2 2.5-14.7 16.3-6 26.5 11.7 13.8 26.3 15.2 28.9 14.9z"/>
				<g>
					<path class="s5" d="m543.1 268.6c-1.7-5.7 2.8-22.3 14.4-24.2 1.9-2.5 12.4-21.1 10.5-35.3-1.3-9.8-12.3-25.4-41.2-28-12.7-1.1-32 11.4-37.7 20.9-2.7 4.5-2.4 28.5 0.5 41.5 1.4 6.5 5.2 17.6 9.7 21 1.8 1.3 6.4-3.8 10-7.4-0.8 7.3 6 13.7 13.3 15 7.2 1.4 14.6-1 20.5-3.5z"/>
					<path class="s5" d="m616.1 216.3c57.9 0 34.7 49.7-8.4 36.7-19.9-6-29.2-36.7 8.4-36.7z"/>
					<path class="s5" d="m618.4 176.5c1.7-7 6.8-13.1 13.4-16.1 2-0.9 4.3-1.5 6.3-0.7 1.7 0.6 2.9 2.2 3.9 3.7 4.2 6 7.7 12.5 10.4 19.3-2.4 1-4.7 2.4-6.7 4.1-9.2-4.5-18.7-8.5-27.3-10.3z"/>
					<path class="s5" d="m656.3 178.9c-5.4 9.2-5.3 21.3 0.2 30.5 1.6 2.7 3.9 5.3 7 6.2 4.1 1.1 8.4-1.1 11.5-3.9 7.4-6.8 10.8-17.4 9.7-27.4-0.4-3.3-1.3-6.7-3.5-9.1-3.4-3.5-8.9-4.1-13.5-2.6-4.6 1.4-9.6 3.3-11.4 6.3z"/>
					<path class="s5" d="m675.9 471.8c-5.8-7.5-8-17.7-5.8-26.9 0.5-2 1.2-3.9 2.4-5.5 1.3-1.6 3.2-2.7 5.2-2.6 3.4 0.1 5.6 3.4 7 6.5 1.7 3.8 2.8 7.8 3.5 11.9 0.6 4.1 0.6 8.4-1.2 12.1-1.9 3.6-6.2 6.2-11.1 4.5z"/>
					<path class="s5" d="m585.2 452.8c13.4-17 46.4-11.1 49.5-4.2 1.1 2.2 0.1 4.8-0.8 7.1-2.3 5.5-4.9 11.4-9.8 14.8-3 2.1-8.4 5.9-12 6.9-8.3 2.1-15.1 1.5-23.7 0.8-2.6-0.2-5.4-0.8-7.4-2.5-1.9-1.8-2.8-5-1.2-7.1 1.4-1.8 4.1-2.2 5.2-4.2 2-3.6-0.5-10.8 0.2-11.6z"/>
					<path class="s5" d="m479.4 450.4c-1.3-4.9-4.2-9.2-8.2-12.2-2.2-1.7-5.3-2.9-7.6-1.4-2.1 1.4-2.5 4.4-2.3 6.9 0.5 6.3 2.7 12.4 5 18.3 1.3 3.1 2.7 6.5 5.5 8.5 2.1 1.6 4.8 2.2 7.4 2.6 5.6 0.9 11.2 0.8 16.8-0.2-7.9-5.8-14.4-14-16.6-22.5z"/>
					<path class="s5" d="m525.7 452.4c10.2-8 23.8-11.5 36.6-9.3 3.8 0.7 7.8 2 9.9 5.2 2.5 3.6 1.9 8.4 1.2 12.8-0.9 5.4-2.2 11.4-6.7 14.5-2.5 1.7-5.5 2.3-8.4 2.7-8 1-16 1.2-24 1.3-2.5 0.1-5.1 0.1-7.2-1-2.6-1.4-4.1-4.4-3.7-7.3 0.4-2.9 2.7-5.4 5.5-6-1.4-4.4-2.5-8.9-3.2-12.9z"/>
				</g>
				<g>
					<path class="s6" d="m623.2 226.5c-1-1.6 0.1-4.4 4.6-3.8 4.9 0.6 5.8 4.1 5.2 5-1.7 2.5-8.9 0.4-9.8-1.2z"/>
					<path class="s7" d="m573.2 104.8c-1-2 0.4-5.6 5.5-5.1 5.6 0.5 6.4 4.9 5.6 6.1-2 3.3-10.1 1-11.1-1z"/>
					<path class="s7" d="m541.2 108.7c-1-2 0.4-5.6 5.5-5.1 5.6 0.5 6.4 4.9 5.6 6.1-2 3.3-10.1 1-11.1-1z"/>
				</g>
			</g>
			<g>
				<path class="s8" d="m598.3 219.9c-1.1 0-2.1-0.8-2.4-1.9-0.4-1.3 0.4-2.7 1.8-3.1 6.9-1.8 14.4-2 22.2-0.5 1.4 0.2 2.3 1.5 2 2.9-0.2 1.3-1.5 2.2-2.9 2-7.1-1.3-13.9-1.2-20 0.5q-0.4 0.1-0.7 0.1z"/>
				<path class="s8" d="m530.3 222c-0.9 0-1.7-0.5-2.2-1.3-0.6-1.2-0.2-2.7 1-3.4 6.2-3.4 13.5-5.5 21.4-6 1.4-0.1 2.6 0.9 2.7 2.3 0.1 1.4-0.9 2.6-2.3 2.7-7.3 0.5-13.8 2.3-19.4 5.4q-0.5 0.3-1.2 0.3z"/>
				<path class="s8" d="m496.7 217.4c-0.8 0-1.7-0.5-2.1-1.3-2-3.4-4.5-6.7-7.6-9.6-1-1-1-2.6-0.1-3.5 1-1 2.6-1.1 3.5-0.1 3.5 3.3 6.3 6.9 8.5 10.7 0.7 1.2 0.3 2.7-0.9 3.4q-0.6 0.4-1.3 0.4z"/>
				<path class="s8" d="m527.2 274.9c-4.6 0-9.4-1.1-13.4-4.4-8.1-6.6-7.6-13.4-6.7-25.7q0.2-2.1 0.3-4.6c0.1-1.4 1.3-2.4 2.7-2.3 1.4 0.1 2.4 1.2 2.3 2.6q-0.1 2.5-0.3 4.7c-0.9 12-1.2 16.4 4.8 21.4 7 5.7 17.8 2.5 23.7 0.8l0.8-0.3c1.4-0.3 2.7 0.4 3.1 1.8 0.4 1.3-0.4 2.7-1.7 3l-0.8 0.3c-3.7 1.1-9.1 2.7-14.8 2.7z"/>
				<path class="s8" d="m551.5 284.8q-0.6 0-1.2-0.3c-6.4-3.5-9.9-11.2-9.3-20.3 0.8-9.9 6.3-18 14.1-20.9 1.3-0.4 2.7 0.3 3.2 1.6 0.5 1.3-0.2 2.7-1.5 3.2-7.3 2.6-10.3 10.5-10.8 16.5-0.4 5.5 1.2 12.5 6.7 15.5 1.2 0.6 1.7 2.1 1 3.3-0.4 0.9-1.3 1.4-2.2 1.4z"/>
				<path class="s8" d="m489.9 315.2c-1.6 0-2.9-0.3-4.1-0.9-2.3-1.3-3.8-3.5-4.2-6.1-1.5-9.2 9.2-23.5 18.5-33.9 0.9-1.1 2.5-1.2 3.5-0.2 1.1 0.9 1.2 2.5 0.2 3.5-11.7 13.2-18.1 24.3-17.3 29.8 0.2 1.2 0.8 2 1.8 2.5 3.5 2 17.4-4.6 28.9-17.5 0.8-0.8 2-1.1 3-0.5 1 0.5 1.6 1.6 1.3 2.7-1.4 6.3-0.3 8 0 8.3 0.1 0.1 0.3 0.4 1.3 0.3 5.8-0.4 12.7-17.9 15.9-33.9 0.3-1.3 1.6-2.2 2.9-1.9 1.4 0.2 2.3 1.6 2 2.9-0.7 3.8-7.7 36.9-20.4 37.9-2.9 0.2-4.6-1-5.5-2q-1.6-1.9-1.8-5.2c-8.7 8-19.1 14.2-26 14.2z"/>
				<path class="s8" d="m551.7 299.3c-0.5 0-1-0.1-1.4-0.4-4.6-3.1-10.1-4.3-14.4-5.3l-1.5-0.4c-1.3-0.3-2.2-1.6-1.9-3 0.4-1.3 1.7-2.2 3-1.9l1.5 0.4c4.8 1.1 10.7 2.4 16.1 6.1 1.1 0.7 1.4 2.3 0.6 3.4-0.4 0.8-1.2 1.1-2 1.1z"/>
				<path class="s8" d="m499.3 267c-0.7 0-1.3-0.3-1.8-0.8-15.4-16.8-14.6-57.3-10.3-66 4.4-8.9 25.3-21.8 55.3-27.9 25.1-5.1 63.6-7.2 104.9 12.4 1.3 0.6 1.8 2.1 1.2 3.3-0.6 1.3-2.1 1.8-3.3 1.2-74.4-35.2-146.5-1.2-153.6 13.2-3.7 7.5-4 45.7 9.5 60.4 0.9 1 0.8 2.6-0.2 3.5-0.5 0.5-1.1 0.7-1.7 0.7z"/>
				<path class="s8" d="m485.5 292.3c-1.5 0-2.8-0.4-4-1.1-1.1-0.7-3.5-2.8-2.4-7.4 2-7.9 18.8-22.7 28.8-28.2 1.2-0.7 2.7-0.2 3.4 1 0.7 1.2 0.2 2.7-1 3.4-9.6 5.3-24.8 19.1-26.3 25-0.1 0.6-0.3 1.6 0.2 2 1 0.6 4.1 0.3 7.6-2.5 1.1-0.8 2.6-0.7 3.5 0.4 0.9 1.1 0.7 2.6-0.4 3.5-3.1 2.5-6.5 3.9-9.4 3.9z"/>
				<path class="s8" d="m666.7 218.4c-1.1 0-2.1-0.7-2.4-1.8-0.4-1.4 0.4-2.7 1.8-3.1 11.3-3 15.8-14 16.3-23.3 0.4-8.1-2.3-15-6.4-16.5-5.7-2.2-19.4 8.5-28.4 15.6-3.4 2.7-6.5 5.1-9 6.8-1.2 0.8-2.7 0.5-3.5-0.7-0.8-1.1-0.5-2.7 0.7-3.4 2.3-1.6 5.4-4 8.7-6.6 11.7-9.2 24.9-19.5 33.3-16.4 6.2 2.3 10.1 10.9 9.6 21.4-0.6 10.6-6.1 24.2-20 27.9q-0.4 0.1-0.7 0.1z"/>
				<path class="s8" d="m651.9 185.2c-1 0-1.9-0.6-2.3-1.6-1.8-4.9-7.4-20-13-21.1-5.3-1.2-12.8 5.7-16.3 15-0.5 1.3-1.9 1.9-3.2 1.4-1.3-0.5-1.9-1.9-1.5-3.2 4-10.4 13.3-20 22-18.1 7.3 1.5 12.3 12.6 16.7 24.3 0.5 1.3-0.2 2.7-1.5 3.2q-0.4 0.1-0.9 0.1z"/>
				<path class="s8" d="m726.1 475.9q-0.6 0-1.3 0c-1.4-0.1-2.4-1.3-2.4-2.6 0.1-1.4 1.3-2.5 2.7-2.4 5.7 0.3 11-1.8 15.8-6.1 10.4-9.5 15.7-27.4 16.3-40.8 2.7-62.3-39.6-153.8-82.8-212-0.9-1.1-0.6-2.7 0.5-3.5 1.1-0.8 2.7-0.6 3.5 0.5 43.7 58.9 86.5 151.7 83.8 215.2-0.6 14.5-6.4 33.8-17.9 44.3-5.5 4.9-11.6 7.4-18.2 7.4z"/>
				<path class="s8" d="m679.9 475.9q0 0-0.1 0c-5.4-0.3-9.7-5.4-11.7-14.1-2.2-10.2-0.8-23.2 5.6-26.6 3.3-1.7 5.9-1.2 7.5-0.4 3.9 1.8 6.6 7 8.3 15.8 0.3 1.4-0.6 2.7-2 3-1.3 0.2-2.6-0.7-2.9-2-1.9-9.6-4.5-11.8-5.5-12.3-0.6-0.3-1.5-0.5-3.1 0.4-3.5 1.8-4.9 12.2-3 21 1.1 4.8 3.5 10 7.1 10.2 1.3 0.1 2.4 1.2 2.3 2.6 0 1.4-1.1 2.4-2.5 2.4z"/>
				<path class="s8" d="m477.9 475.9q0 0-0.1 0c-9.1-0.4-16.2-14.3-18.4-24-1.9-8.4-0.6-14.5 3.5-16.7 2.5-1.3 5.1-1.5 7.6-0.5 5.6 2.1 9.4 9.5 11.7 15.4 0.5 1.2-0.2 2.7-1.5 3.2-1.3 0.5-2.7-0.2-3.2-1.5-2.6-6.8-5.8-11.4-8.8-12.5-1.1-0.4-2.2-0.3-3.4 0.4-1.9 0.9-2.3 5.5-1 11.1 2.3 10.3 8.8 19.9 13.7 20.1 1.4 0.1 2.5 1.2 2.4 2.6 0 1.4-1.1 2.4-2.5 2.4z"/>
				<path class="s8" d="m683 441.3q-0.1 0-0.2-0.1c-1.4-0.1-2.4-1.3-2.3-2.7 1.6-18.3 14.6-30.8 36.8-34.9 1.3-0.3 2.6 0.6 2.9 2 0.2 1.4-0.7 2.7-2 2.9-14 2.6-30.9 10-32.7 30.5-0.1 1.3-1.2 2.3-2.5 2.3z"/>
				<path class="s8" d="m726.9 475.9h-104c-1.4 0-2.5-1.1-2.5-2.5 0-1.4 1.1-2.5 2.5-2.5h104c1.3 0 2.5 1.1 2.5 2.5 0 1.4-1.2 2.5-2.5 2.5z"/>
				<path class="s8" d="m578.2 475.9h-9c-1.4 0-2.5-1.1-2.5-2.5 0-1.4 1.1-2.5 2.5-2.5h9c1.4 0 2.5 1.1 2.5 2.5 0 1.4-1.1 2.5-2.5 2.5z"/>
				<path class="s8" d="m521.6 475.9h-43.7c-1.3 0-2.5-1.1-2.5-2.5 0-1.4 1.2-2.5 2.5-2.5h43.7c1.4 0 2.5 1.1 2.5 2.5 0 1.4-1.1 2.5-2.5 2.5z"/>
				<path class="s8" d="m508.4 475.9c-9.9 0-18-3.8-24-11.3-12-14.9-13.3-41-9.4-59.1 5.8-27 14-43.7 20.5-57.2 7.3-15 13.1-26.9 13.1-46.4 0-1.4 1.1-2.5 2.5-2.5 1.4 0 2.5 1.1 2.5 2.5 0 20.7-6 33-13.6 48.6-6.8 13.9-14.4 29.7-20.1 56.1-3.8 17.4-2.1 41.9 8.4 54.8 5 6.3 11.8 9.5 20.1 9.5 1.3 0 2.5 1.1 2.5 2.5 0 1.4-1.2 2.5-2.5 2.5z"/>
				<path class="s8" d="m594.7 482.3c-2.4 0-4.7-0.1-6.7-0.4-6.2-0.9-10.3-3-11.6-6.1-2.7-6 0.8-8.9 3.7-11.3q0.7-0.6 1.5-1.3c0.1-13.9 0.8-39.7 5.5-62.9 0.2-1.4 1.5-2.2 2.9-2 1.4 0.3 2.2 1.6 2 3-4.7 23.3-5.4 49.5-5.4 63 0 0.7-0.3 1.3-0.7 1.8-0.9 0.9-1.8 1.6-2.7 2.3-2.8 2.3-3.3 2.9-2.2 5.4 0.4 1 2.7 2.4 7.7 3.1 12.1 1.7 30.3-2 37.1-10.2 3.5-4.1 13-29.7 20.6-50.2 2.2-5.9 4.3-11.6 6.1-16.6 0.5-1.3 2-1.9 3.3-1.5 1.3 0.5 1.9 2 1.4 3.3-1.9 5-4 10.6-6.1 16.5-10.2 27.5-17.7 47.3-21.4 51.7-7.6 9-23.3 12.4-35 12.4z"/>
				<path class="s8" d="m542.1 482.6c-2.4 0-4.6-0.1-6.7-0.3-8.1-0.9-13-3-14.4-6.6-1.9-4.4 0.8-9.6 4.8-12.5-5.5-17.8-10.7-34.9-14.1-62.1-0.1-1.4 0.9-2.6 2.2-2.8 1.4-0.2 2.6 0.8 2.8 2.2 3.3 27.3 8.6 44.3 14.2 62.2l0.2 0.9c0.4 1.2-0.2 2.4-1.3 3-2.7 1.3-5.2 4.8-4.2 7.2 0.4 0.9 3 2.8 10.3 3.5 13.2 1.3 29.1-1.8 32.2-6.4 3.2-4.8 5.5-40.8 5.5-70.1 0-1.4 1.1-2.5 2.5-2.5 1.4 0 2.5 1.1 2.5 2.5 0 17.7-1.2 65.2-6.4 72.9-4.2 6.3-18.5 8.9-30.1 8.9z"/>
				<path class="s8" d="m564.9 143c-4.7 0-18.7-2.4-30.1-15.9-5.4-6.3-7.4-14.2-5.1-20.5 1.8-5.3 6.3-8.8 12.6-10 8.5-1.7 15 3.1 18.9 7.9 1.2-3.1 3.2-6.8 6.6-9.3 3.5-2.7 7.7-3.7 12.5-3 4.7 0.7 8.8 3.6 11.2 7.9 3.1 5.9 3 13.4-0.3 20.7-7.8 16.8-22.2 21.8-25.3 22.1q-0.4 0.1-1 0.1zm-19.2-41.8q-1.2 0-2.5 0.3c-4.5 0.8-7.5 3.2-8.8 6.8-1.7 4.6-0.1 10.6 4.2 15.6 10.9 12.8 24.5 14.3 26.7 14 2.2-0.2 14.5-4.4 21.3-19.2 2.7-5.8 2.9-11.8 0.5-16.2-1.7-3-4.3-4.9-7.5-5.3-5.3-0.8-9.3 1.1-12.1 5.8-2.3 3.7-2.9 7.8-2.9 7.9-0.2 1.1-1 1.9-2.1 2.1-1.1 0.2-2.2-0.4-2.6-1.4-0.3-0.5-5.1-10.4-14.2-10.4z"/>
				<path class="s8" d="m735.3 394.5c-1.2 0-2.2-0.9-2.4-2.1-0.7-4-1.7-7.9-2.9-11.8-0.5-1.3 0.2-2.7 1.6-3.1 1.3-0.5 2.7 0.2 3.1 1.5 1.4 4.1 2.4 8.3 3.1 12.6 0.2 1.3-0.7 2.6-2 2.9q-0.2 0-0.5 0z"/>
				<path class="s8" d="m729.1 369.8c-1.1 0-2.2-0.8-2.4-1.9-0.9-4-2.1-7.9-3.6-11.7-0.5-1.3 0.1-2.7 1.4-3.2 1.3-0.5 2.8 0.1 3.3 1.4 1.5 4 2.8 8.2 3.7 12.4 0.3 1.3-0.5 2.6-1.8 2.9q-0.3 0.1-0.6 0.1z"/>
				<path class="s8" d="m743.4 379.9c-1.2 0-2.2-0.8-2.5-1.9-1-3.9-2.2-7.6-3.6-11.3-0.5-1.2 0.2-2.7 1.4-3.2 1.3-0.5 2.8 0.2 3.3 1.4 1.4 3.8 2.7 7.8 3.8 11.8 0.3 1.4-0.5 2.7-1.8 3.1q-0.3 0.1-0.6 0.1z"/>
			</g>
		</g>
	</g>
	<g id="Layer_3">
		<g>
			<path class="s0" d="m828.5 485.6c0-18.2 81.9-32.9 183-32.9 101 0 183 14.7 183 32.9 0 18.2-82 32.9-183 32.9-101.1 0-183-14.7-183-32.9z"/>
			<g>
				<path class="s1" d="m1177.3 476.6c34.5-1.3 44.1-73 35.8-83.3-35.4-43.8-112.5-52-130-61.1-30.1-15.7-58.8-42.8-101.2-52.8-82.9-19.5-145.8 24.5-164.9 96.4-10.5 39.5 2 103.3 48 100.8 0 0 312.3 0 312.3 0z"/>
				<g>
					<path class="s5" d="m937.7 429.7c-7 3.1-8.7 11-9.5 18.6-1.6 16.2 2.6 30.2 12.2 28.3 7.8-1.5 10.9-19.1 10.6-26.2-1-21.3-9.8-22.2-13.3-20.7z"/>
					<path class="s5" d="m999.6 387.1c6.1 1.3 12.4 2 18.5 1 8.5-1.4 16.2-6 20.9-12.6 4.7-6.5 6.3-14.8 4.3-22.4-0.4-1.3-0.9-2.7-2-3.7-2.2-2-5.7-1.6-8.8-1.1-7.6 1.2-15.3 2.5-22.3 5.5-7.1 2.9-13.5 7.8-16.4 14.3-2.9 6.6-2.6 17.2 5.8 19z"/>
					<path class="s5" d="m1057.1 476.3c-1.5-6.2 1.5-13.1 6.8-16.5 5.4-3.4 12.8-3.1 18.1 0.5 5.2 3.6 8.1 10.3 7.3 16.6-11.1-0.1-22.3-0.2-32.2-0.6z"/>
					<path class="s5" d="m1126.9 476.6c-4-18.5-10.1-58.5-0.3-82.5 8.2-20.1 58.4-30 73.2-15.2 5.2 5.2 12 10.2 14.6 16.9 3 7.7 0.9 30.2-3.9 45-4.9 14.7-12.6 32.8-29.8 34.7-7.3 0.8-44.1 0.6-53.8 1.1z"/>
				</g>
				<path class="s5" d="m1066.5 417.1c-54.8-1-36.1-45.2 2.5-38.2 2.9 10.3 12.7 15.2 21.4 14.2 5.6 11 1.1 24.5-23.9 24z"/>
			</g>
			<g>
				<path class="s8" d="m1177.3 479.1h-313c-1.4 0-2.5-1.2-2.5-2.5 0-1.4 1.1-2.5 2.5-2.5h313c1.4 0 2.5 1.1 2.5 2.5 0 1.3-1.1 2.5-2.5 2.5z"/>
				<path class="s8" d="m863.1 479.1c-13.6 0-25.4-5.7-34.3-16.7-18.3-22.5-21-61.7-14.2-87.2 20.5-77.5 88-117 167.9-98.2 29.1 6.8 52.4 22 72.8 35.3 10 6.5 19.4 12.7 29 17.6 4.4 2.3 13 4.6 24 7.6 31.9 8.5 80.2 21.4 106.7 54.2 6 7.4 4 38.1-6.3 60.7-7.7 17-18.6 26.2-31.3 26.7-1.4 0-2.6-1.1-2.6-2.5-0.1-1.3 1-2.5 2.4-2.5 13.6-0.5 22.1-13.2 27-23.8 10.2-22.4 10.9-50.6 6.9-55.5-25.5-31.5-72.8-44.1-104.1-52.5-11.3-3-20.2-5.4-25-7.9-9.8-5.1-19.3-11.3-29.4-17.9-21.1-13.7-43-28-71.2-34.6-77.1-18.2-142.2 19.9-162 94.6-6.4 24.3-4 61.5 13.2 82.7 8.6 10.6 19.7 15.6 33 14.9 1.3-0.1 2.5 0.9 2.6 2.3 0.1 1.4-1 2.6-2.4 2.7q-1.3 0-2.7 0z"/>
				<path class="s8" d="m1089.9 395.5c-4.9 0-9.8-1.3-13.8-3.6-5.1-2.9-8.6-7.4-9.6-12.4-0.2-1.4 0.6-2.7 2-3 1.3-0.2 2.7 0.6 2.9 2 0.8 3.6 3.4 6.9 7.2 9.1 3.9 2.3 9.2 3.3 14 2.7 1.4-0.1 2.6 0.8 2.8 2.2 0.2 1.4-0.8 2.6-2.2 2.8q-1.7 0.2-3.3 0.2z"/>
				<path class="s8" d="m1175.4 417.4c-0.9 0-1.8-0.5-2.3-1.4-2.5-4.9-10.1-9.1-22.4-12.3-1.3-0.4-2.1-1.7-1.8-3.1 0.4-1.3 1.7-2.1 3.1-1.8 13.9 3.7 22.3 8.6 25.6 14.9 0.6 1.2 0.1 2.8-1.1 3.4q-0.6 0.3-1.1 0.3z"/>
				<path class="s8" d="m1202.8 414.5q-0.6 0-1.1-0.3c-1.3-0.6-1.8-2.1-1.2-3.3 2.8-5.9 7.7-11.2 13.3-14.6 1.2-0.7 2.8-0.3 3.5 0.9 0.7 1.2 0.3 2.7-0.9 3.4-6.9 4.1-10.3 10.1-11.4 12.4-0.4 0.9-1.3 1.5-2.2 1.5z"/>
				<path class="s8" d="m1152.6 466.8c-1.3 0-2.4-0.9-2.5-2.1-0.2-1.4 0.7-2.7 2.1-2.8 16.1-2.2 28.9-6.7 34.3-12.1 1.2-1.2 4.1-8.4 5.9-20.2 0.2-1.4 1.4-2.3 2.8-2.1 1.4 0.2 2.3 1.5 2.1 2.8-1.6 10.9-4.6 20.3-7.3 23-8.8 8.8-28.9 12.4-37.1 13.5q-0.2 0-0.3 0z"/>
				<path class="s8" d="m1200.6 462.7q-0.5 0-1-0.3c-5-2.3-9.3-5.8-12.6-10.2-0.8-1.1-0.6-2.7 0.5-3.5 1.1-0.8 2.7-0.6 3.5 0.5 2.8 3.7 6.5 6.7 10.7 8.7 1.3 0.6 1.8 2.1 1.2 3.3-0.4 0.9-1.3 1.5-2.3 1.5z"/>
				<path class="s8" d="m1010.3 391.5c-4.2 0-8.1-0.7-11.4-2-4.9-2.1-7.9-5.5-8.8-10-1.5-7.6 0.5-14.6 5.8-20.3 9.4-10.1 29-15.3 48.9-13 1.4 0.1 2.3 1.4 2.2 2.8-0.2 1.3-1.4 2.3-2.8 2.2-18.4-2.2-36.3 2.4-44.7 11.4-4.2 4.6-5.7 9.9-4.5 15.9 0.5 2.8 2.5 5 5.8 6.3 7.3 3.1 19.8 1.7 26.8-2.9 1.1-0.8 2.7-0.5 3.4 0.7 0.8 1.1 0.5 2.7-0.7 3.4-5.3 3.6-12.9 5.5-20 5.5z"/>
				<path class="s8" d="m937.2 479.1c-1.4 0-2.5-1.1-2.5-2.4-0.1-1.4 1-2.6 2.3-2.6 4.2-0.2 7.8-5.3 9.7-13.6 2.6-11.7 0.6-25.2-4.2-27.7-2.6-1.4-4-0.7-4.5-0.5-1.8 0.8-5.1 4.1-7.5 16.2-0.2 1.4-1.6 2.3-2.9 2-1.4-0.3-2.3-1.6-2-2.9 2.2-11.1 5.5-17.6 10.2-19.8 1.9-0.9 5-1.6 9 0.6 7.9 4.1 9.6 20.4 6.8 33.2-2.4 10.8-7.7 17.1-14.3 17.5q-0.1 0-0.1 0z"/>
				<path class="s8" d="m933.2 434.7c-1.3 0-2.4-0.9-2.5-2.3-2.4-27.9-27.5-36.8-42.3-39.5-1.4-0.3-2.3-1.6-2-2.9 0.2-1.4 1.5-2.3 2.9-2 28 5.2 44.4 20.8 46.4 44 0.1 1.4-0.9 2.6-2.3 2.7q-0.1 0-0.2 0z"/>
				<path class="s8" d="m1088.7 479.1q-0.2 0-0.4 0c-1.3-0.2-2.3-1.5-2.1-2.9 1.8-11.6-6.6-15-14.7-17.2-2.4-0.6-3.7-1-4.5-2.1l-0.2-0.2c-6.2-8.6-23.3-29.9-49.6-42.5-1.2-0.6-1.8-2.1-1.2-3.3 0.6-1.2 2.1-1.8 3.4-1.2 27.1 13 44.9 34.9 51.3 43.9 0.5 0.2 1.4 0.4 2.2 0.6 6.2 1.7 20.9 5.7 18.3 22.8-0.2 1.2-1.3 2.1-2.5 2.1z"/>
				<g>
					<path class="s8" d="m847.1 354.2q-0.6 0-1.2-0.3c-1.2-0.7-1.6-2.2-1-3.4 2.1-3.8 4.5-7.4 7.1-10.8 0.8-1.1 2.4-1.3 3.5-0.5 1.1 0.9 1.3 2.4 0.5 3.5-2.5 3.2-4.7 6.7-6.7 10.2-0.4 0.8-1.3 1.3-2.2 1.3z"/>
					<path class="s8" d="m861.2 333q-0.7 0-1.4-0.4c-1.1-0.8-1.5-2.3-0.7-3.5 2.2-3.6 4.8-7.1 7.6-10.4 0.9-1 2.5-1.1 3.5-0.2 1.1 0.9 1.2 2.4 0.3 3.5-2.6 3.1-5.1 6.4-7.2 9.8-0.5 0.7-1.3 1.2-2.1 1.2z"/>
					<path class="s8" d="m844.4 337.7q-0.7 0-1.4-0.4c-1.1-0.8-1.4-2.3-0.7-3.5 2.4-3.4 4.9-6.7 7.5-9.8 0.9-1.1 2.5-1.2 3.5-0.3 1.1 0.9 1.2 2.5 0.3 3.5-2.5 3-4.9 6.1-7.1 9.4-0.5 0.7-1.3 1.1-2.1 1.1z"/>
				</g>
				<path class="s8" d="m1126.9 325.9q-0.6 0-1.2-0.3c-0.9-0.5-1.4-1.5-1.3-2.5l2.1-23.1-12.2 9.8c-1 0.8-2.6 0.6-3.5-0.4-0.8-1.1-0.7-2.7 0.4-3.6l16.8-13.3c0.8-0.6 1.9-0.7 2.8-0.3 0.8 0.5 1.3 1.5 1.3 2.5l-2.2 23 12-9.7c1.1-0.9 2.7-0.8 3.5 0.3 0.9 1.1 0.7 2.7-0.3 3.5l-16.6 13.5c-0.5 0.4-1.1 0.6-1.6 0.6z"/>
				<path class="s8" d="m1156.5 301.8c-0.7 0-1.4-0.3-1.9-0.9-0.6-0.8-0.7-1.9-0.3-2.7l14.5-26.8-20.2 5.6c-1.3 0.3-2.7-0.5-3-1.8-0.4-1.3 0.4-2.7 1.7-3.1l25.8-7.1c1-0.3 2 0.1 2.7 0.9 0.6 0.7 0.7 1.8 0.2 2.7l-14.4 26.7 19.9-5.7c1.4-0.4 2.8 0.4 3.1 1.7 0.4 1.4-0.4 2.7-1.7 3.1l-25.7 7.3q-0.3 0.1-0.7 0.1z"/>
				<path class="s8" d="m1235.7 294.7q-0.1 0-0.2 0l-33.7-2.6c-1-0.1-1.8-0.8-2.1-1.7-0.4-1-0.1-2 0.7-2.7l30.1-26.3-27.9-2.4c-1.4-0.1-2.4-1.4-2.3-2.7 0.1-1.4 1.4-2.4 2.7-2.3l33.7 2.9c1 0.1 1.9 0.8 2.2 1.7 0.3 1 0 2-0.7 2.7l-30 26.3 27.6 2.1c1.4 0.1 2.5 1.3 2.3 2.7-0.1 1.3-1.2 2.3-2.4 2.3z"/>
			</g>
			<path class="s6" d="m1051.6 387.9c-1-1.3-0.7-4.2 2.9-4.9 4-0.7 5.2 2.5 4.9 3.5-0.8 2.8-6.8 2.7-7.8 1.4z"/>
		</g>
	</g>
	<g id="Layer_4">
		<g>
			<path fill-rule="evenodd" class="s0" d="m218.7 518.5c-89.7 0-162.2-17-162.2-38 0-21 72.5-38 162.2-38 89.6 0 162.1 17 162.1 38 0 21-72.5 38-162.1 38z"/>
			<g>
				<g>
					<path class="s5" d="m110.5 318.3c0 0-40 3.6-47.1 9.7-7 6.1-5.5 19.4-5.5 19.4l-0.7 115.6c0 0 5.1 13.5 28.1 18.1 23.1 4.5 85.7 13.6 113.2 13.6 27.4 0 93.7-2.3 93.7-2.3 0 0 49.5-7.3 63-12 13.5-4.8 23.1-8.4 23.1-15 0-6.7 0.7-130 0.7-130 0 0-3.2-11-19.9-12.7-16.7-1.7-248.6-4.4-248.6-4.4z"/>
					<path class="s9" d="m378.5 386.5c0 43.5-320.7 43.5-320.7 0v33.6c0 43.5 320.7 43.5 320.7 0z"/>
					<path class="s1" d="m91.5 342.6c-4-17.4 4.3-35.7 16.7-48.4 12.5-12.7 28.7-21 44.5-29.1 15.9-8.2 32.7-19 44.6-32.2 11-12.2 14.7-24.4 27.2-35.1 8.3-7.1 27-16.2 37.5-19.2 43.4-12.3 93.1 10.4 113.6 30.8 7.5 7.5 2.2 28.1 1.5 38.7-0.7 10.6-5.7 25.8-14.8 31.4-4.7 2.9-17 7-21.3 10.5-2.5 1.9-7.2 11.4-6.6 21.9 0.7 10.5 5.2 20.3 9.6 29.9-71.6 23.4-149 15.9-223.9 8.2-9.5-1-19.1-2-28.6-7.4z"/>
					<path class="s10" d="m235.4 192.9c-8.7-9.7-8.5-33.4 18.5-41.3 29.4-8.7 41.4 15.5 39.7 24.2-4.3 23.1-49.7 26.6-58.2 17.1z"/>
					<path class="s11" d="m238 356c8.1 0.2 16.3-0.3 24.3-1.6q-0.4 21.2-0.1 42.4c0.1 2.4 0.2 5.1 2.1 6.7 1.4 1.1 3.2 1.2 5 1.3 27.5 1.2 55.2-2.7 81.1-12 4.9-1.7 10-3.9 12.9-8.2 2.4-3.7 2.8-8.4 3.1-12.8 0.6-8.5 1.2-17 0.3-25.5-0.8-8.5-3.3-17-8.2-23.9-38.2-6.2-77 2.7-114.7 11.6-1.3 7.5-2.6 15.1-5.8 22z"/>
					<path class="s9" d="m245.7 338.1c-1.1 2.9 0.6 6.5 3.5 7.5 3.4 1.3 7-0.7 10.5-0.6 1 0 2.1 0.3 2.6 1.1 0.4 0.6 0.4 1.3 0.4 2q0 3.7-0.1 7.4c-7.3 1.4-14.9 1.4-22.2 0 1-3.2 0.7-6.6 1-10 0.4-3.3 1.7-6.9 4.3-7.4z"/>
				</g>
				<g>
					<path class="s5" d="m202 211.1c-2.1 0.9-4.3 2-5.5 3.9-1.2 1.9-1.1 4.3-0.7 6.4 0.4 2.6 1.2 5.1 2.9 7.2 2 2.6 5.1 4.3 8.1 5.7 2.3 1.1 4.7 2.1 7.2 2.2 2.3 0.1 4.5-0.6 6.5-1.3 3.9-1.5 7.5-3.7 9.8-6.9 1.4-2 2.2-4.4 2.7-6.8 0.5-2.6 0.8-5.2 0.2-7.8-0.5-2.6-2-5.1-4.3-6.6-2.4-1.6-20.9 1.4-26.9 4z"/>
					<path class="s5" d="m261.3 222.3c44.8 8.6 13.4 52.6-16.4 33.8-13.8-8.7-12.7-39.5 16.4-33.9z"/>
					<path class="s5" d="m322.3 297.8c-8.6 4-26.5-37.7-16.8-68.1 7.9-24.6 58.2-32.1 69.6-20.8 8.9 9 2.1 54.1-6.4 66.1-5.6 8-31.8 16.2-46.4 22.8z"/>
				</g>
				<g>
					<path class="s12" d="m248.8 174.8c-4.3-5.5-3-17.9 12.4-20.6 16.7-2.9 22 10.3 20.7 14.8-3.6 11.8-28.9 11.2-33.1 5.8z"/>
					<path class="s6" d="m244.6 233.3c-1-1.4-0.7-4.3 2.9-4.9 4-0.7 5.2 2.4 4.9 3.5-0.8 2.8-6.8 2.6-7.8 1.4z"/>
					<path class="s13" d="m59.1 336c3.2-2.1 6.9-3.8 10.7-4 3.9-0.3 8 1.1 10.4 4.1 1.3 1.7 2.3 3.9 4.3 4.6q3.3 1.6 6.6 3.2c-0.9-7.6-0.8-15.3 0.3-22.8-6.8-0.2-13.8-0.4-20.2 2-6.4 2.3-12.2 7.6-12.1 12.9z"/>
				</g>
			</g>
			<g>
				<path class="s8" d="m214 239.8c-9.6 0-15.1-5-17-7.2-5.1-5.7-6.4-13.7-3-18.8 3.3-5 9.6-6.4 16.9-7.9 5.4-1.1 11.4-2.4 17.7-5.3 1.2-0.6 2.7-0.1 3.3 1.2 0.6 1.2 0 2.7-1.2 3.3-6.8 3.2-13.1 4.5-18.8 5.7-6.4 1.4-11.5 2.4-13.7 5.7-2.1 3.2-1 8.8 2.6 12.8 5.9 6.7 16.3 7.3 27.8 1.6 1.2-0.6 2.7-0.1 3.3 1.1 0.7 1.3 0.2 2.8-1.1 3.4-6.6 3.3-12.1 4.4-16.8 4.4z"/>
				<path class="s8" d="m223.1 249.4c-0.6 0-1.2-0.2-1.6-0.6-1.1-0.8-1.2-2.4-0.4-3.5 2-2.3 4.3-4.3 6.9-6 1.2-0.7 2.7-0.3 3.5 0.8 0.7 1.2 0.3 2.7-0.8 3.5-2.2 1.3-4.1 3-5.7 4.9-0.5 0.6-1.2 0.9-1.9 0.9z"/>
				<path class="s8" d="m231.2 255.7q-0.5 0-1-0.2c-1.2-0.5-1.8-2-1.3-3.3q1.1-2.8 3.1-5.1c0.9-1.1 2.5-1.2 3.6-0.3 1 0.9 1.1 2.5 0.3 3.5q-1.5 1.8-2.4 3.9c-0.4 0.9-1.3 1.5-2.3 1.5z"/>
				<path class="s8" d="m253.3 200.3c-8.4 0-16.2-1.7-19.8-5.7-5.2-5.8-7.1-15.1-4.7-23.6 1.7-6 7.1-16.8 24.4-21.8 16.9-5 27.6 0.4 33.5 5.8 7.4 6.7 10.4 16 9.4 21.3-1.9 10-10.7 17.6-24.7 21.6-5.6 1.5-12 2.4-18.1 2.4zm-16.1-9.1c3.8 4.2 18.6 5.9 32.8 1.9 7.1-2 19.1-6.9 21.2-17.7 0.6-3.3-1.5-11-7.8-16.7-5.1-4.6-14.1-9.1-28.8-4.7-11.1 3.2-18.5 9.8-21 18.4-1.9 6.8-0.4 14.3 3.6 18.8z"/>
				<path class="s8" d="m91.4 345.7c-1.3 0-2.3-1-2.5-2.2-4-28.7 10.1-52.4 42-70.6 5.6-3.2 11-5.9 16.2-8.6 16-8.1 31.1-15.8 50.2-34.9 1-1 2.6-1 3.5 0 1 1 1 2.5 0 3.5-19.7 19.7-35.1 27.6-51.5 35.9-5.1 2.6-10.5 5.3-15.9 8.5-29.9 17-43.3 39.1-39.6 65.5 0.2 1.4-0.7 2.6-2.1 2.8q-0.2 0.1-0.3 0.1z"/>
				<path class="s8" d="m216.7 208.8c-0.5 0-1.1-0.1-1.5-0.5-1.1-0.8-1.3-2.4-0.5-3.5 2.1-2.7 9.7-11.9 18.2-16 1.2-0.6 2.7-0.1 3.3 1.2 0.6 1.2 0.1 2.7-1.2 3.3-5.9 2.9-12.3 9.4-16.3 14.6-0.5 0.6-1.3 0.9-2 0.9z"/>
				<path class="s8" d="m277.4 232.6c-0.6 0-1.2-0.3-1.7-0.7-4.3-3.9-10.9-6.3-19.4-6.9-1.3-0.2-2.4-1.4-2.3-2.7 0.1-1.4 1.3-2.4 2.7-2.3 9.6 0.7 17.3 3.6 22.4 8.2 1 1 1 2.5 0.1 3.5-0.5 0.6-1.2 0.9-1.8 0.9z"/>
				<path class="s8" d="m318.6 302.5c-0.8 0-1.5-0.3-2-1-0.8-1.2-0.5-2.7 0.6-3.5 4.6-3.2 11.6-6 19.1-8.9 10.6-4.1 22.7-8.9 29.6-15.8 3.2-3.2 7.4-16.5 9.6-30.9 2.8-17.6 1.5-28.1-1.1-30.6-18.9-19-50-31.8-80.9-33.5-1.4 0-2.4-1.2-2.4-2.6 0.1-1.4 1.3-2.4 2.7-2.4 32.1 1.8 64.4 15.2 84.2 35 6.2 6.2 3.8 26.5 2.5 34.9-2.1 13.4-6.3 28.9-11.1 33.7-7.6 7.6-20.2 12.5-31.3 16.9-7.2 2.8-13.9 5.4-18 8.3-0.5 0.3-1 0.4-1.5 0.4z"/>
				<path class="s8" d="m335.9 322.2c-1.1 0-2-0.6-2.4-1.6-3.6-9.9-2.6-21.2 2.7-30.4 0.7-1.2 2.2-1.6 3.4-0.9 1.2 0.7 1.6 2.2 0.9 3.4-4.5 7.9-5.4 17.7-2.3 26.1 0.5 1.3-0.2 2.8-1.5 3.2q-0.4 0.2-0.8 0.2z"/>
				<path class="s8" d="m323.3 281.8c-1.2 0-2.3-0.9-2.5-2.2-0.2-1.4 0.8-2.6 2.1-2.8 10.7-1.5 29.5-6.5 34.9-13.7 0.5-0.7 1.3-1.1 2.1-1 0.9 0 1.7 0.5 2.1 1.3 1.3 2.3 3.7 4.2 5.6 4.3 0.8 0 1.4-0.3 1.9-1 0.9-1.1 2.4-1.3 3.5-0.5 1.2 0.8 1.4 2.4 0.6 3.5-1.6 2.1-3.8 3.1-6.3 3-3-0.2-5.7-2-7.7-4.2-8.4 7.7-26.7 12-36 13.2q-0.1 0.1-0.3 0.1z"/>
				<path class="s8" d="m359.2 267.8q-0.7 0-1.4-0.4c-1.2-0.8-1.5-2.3-0.7-3.5 2.3-3.6 2.9-12.3 1.8-16.8-0.3-1.3 0.5-2.7 1.8-3 1.4-0.3 2.7 0.5 3.1 1.8 1.2 5.1 0.9 15.4-2.5 20.7-0.5 0.8-1.3 1.2-2.1 1.2z"/>
				<path class="s8" d="m370.2 228.8q-0.6 0-1.1-0.3c-1.3-0.6-1.8-2.1-1.1-3.4 2.1-4.1 5.1-7.8 8.7-10.6 1.1-0.8 2.6-0.6 3.5 0.5 0.8 1 0.6 2.6-0.5 3.5-3 2.3-5.5 5.4-7.3 8.9-0.4 0.9-1.3 1.4-2.2 1.4z"/>
				<path class="s8" d="m346.3 235.1q-0.7 0-1.4-0.4c-4.2-2.7-9.9-4.7-16.5-5.8-1.4-0.2-2.3-1.5-2.1-2.9 0.2-1.3 1.5-2.3 2.9-2 7.3 1.2 13.7 3.4 18.4 6.5 1.2 0.8 1.5 2.3 0.8 3.5-0.5 0.7-1.3 1.1-2.1 1.1z"/>
				<path class="s8" d="m280.5 408.1c-5.3 0-9.9-0.4-13.3-1.3-5.5-1.4-6.7-4.1-6.7-6.1 0-5.8 0-11.6 0.1-17.2 0.1-15.4 0.2-29.9-0.7-34.8q-0.3-1.8-1.6-2.2c-1.1-0.3-2.6 0-3.5 0.9-1 1-2.5 1-3.5 0-1-1-1-2.5 0-3.5 2.2-2.2 5.6-3.1 8.5-2.2 2.7 0.9 4.5 3.1 5 6.1 1 5.4 0.9 19.4 0.8 35.7-0.1 5.6-0.1 11.4-0.1 17.2 0-0.1 1.5 2.2 13.9 2.3 28.8 0.3 77.5-10.6 83.1-20.8 2-3.6 3.7-31.7-1.8-48.3-1.5-4.8-3.6-7.9-5.8-9-6.4-3-30.2-2.8-57.8 0.5-30.3 3.6-48.8 9-50.9 12.2-1.4 2.2-2.4 10.3-3.5 18l-0.2 1.4c-0.1 1.3-1.4 2.3-2.8 2.1-1.3-0.2-2.3-1.4-2.1-2.8l0.2-1.3c1.4-10.5 2.3-17.1 4.2-20.1 5.1-8 43-13.1 54.5-14.5 22.3-2.6 51.5-4.2 60.5 0 3.6 1.7 6.4 5.7 8.5 12 5.5 16.7 4.4 46.7 1.4 52.2-5.6 10.1-33.9 16.6-45.9 18.9-13 2.6-28.5 4.6-40.5 4.6z"/>
				<path class="s8" d="m224.4 359.4c-21 0-44.5-0.9-66.2-2.6-25.1-2-68.7-6.8-77.7-16.5-2.1-2.2-2.2-4.3-2-5.7 0.2-1.3 1.5-2.3 2.9-2 1.3 0.2 2.3 1.5 2 2.8 0 0.2-0.1 0.7 0.7 1.5 12.6 13.6 125.9 20.6 178.7 16.2 1.3-0.1 2.5 0.9 2.7 2.3 0.1 1.4-1 2.6-2.3 2.7-10.7 0.9-24.1 1.3-38.8 1.3z"/>
				<path class="s8" d="m223.6 371.8c-60 0-142.7-7.8-163.1-25.3-3.2-2.7-5-5.8-5.2-9-0.2-3.2 0.8-6.1 3-8.6 5-5.7 16-8.9 33.7-10 1.4-0.1 2.6 0.9 2.7 2.3 0.1 1.4-1 2.6-2.4 2.7-20 1.2-27.5 5.2-30.3 8.3-1.3 1.5-1.8 3.1-1.7 5q0.2 2.7 3.5 5.5c10.4 8.9 42.6 16.5 88.4 20.7 38.7 3.6 83.1 4.4 110.5 2 1.4-0.1 2.6 0.9 2.7 2.3 0.2 1.3-0.8 2.6-2.2 2.7-10.9 0.9-24.5 1.4-39.6 1.4z"/>
				<path class="s8" d="m366.7 351.9c-1 0-1.9-0.5-2.3-1.4-0.6-1.3-0.1-2.8 1.2-3.4 6.7-3.2 10.3-6.6 10.6-9.9 0.3-5.6-5.8-9.5-18.2-11.8-1.4-0.2-2.3-1.5-2-2.9 0.2-1.3 1.5-2.2 2.9-2 15.3 2.8 22.8 8.5 22.2 17-0.3 5.4-4.7 10-13.4 14.1q-0.5 0.3-1 0.3z"/>
				<path class="s8" d="m57.8 464.8c-1.4 0-2.5-1.1-2.5-2.5v-125c0-1.3 1.1-2.5 2.5-2.5 1.4 0 2.5 1.2 2.5 2.5v125c0 1.4-1.1 2.5-2.5 2.5z"/>
				<path class="s8" d="m378.5 464.8c-1.4 0-2.5-1.1-2.5-2.5v-125c0-1.3 1.1-2.5 2.5-2.5 1.4 0 2.5 1.2 2.5 2.5v125c0 1.4-1.1 2.5-2.5 2.5z"/>
				<path class="s8" d="m80.6 405.4c-1.4 0-2.5-1.2-2.5-2.5v-49.2c0-1.4 1.1-2.5 2.5-2.5 1.3 0 2.5 1.1 2.5 2.5v49.2c0 1.3-1.2 2.5-2.5 2.5z"/>
				<path class="s8" d="m80.6 481.2c-1.4 0-2.5-1.2-2.5-2.5v-40.7c0-1.4 1.1-2.5 2.5-2.5 1.3 0 2.5 1.1 2.5 2.5v40.7c0 1.3-1.2 2.5-2.5 2.5z"/>
				<path class="s8" d="m138.7 417.3c-1.3 0-2.5-1.1-2.5-2.5v-48c0-1.4 1.2-2.5 2.5-2.5 1.4 0 2.5 1.1 2.5 2.5v48c0 1.4-1.1 2.5-2.5 2.5z"/>
				<path class="s8" d="m138.7 494.1c-1.3 0-2.5-1.1-2.5-2.5v-39.7c0-1.3 1.2-2.5 2.5-2.5 1.4 0 2.5 1.2 2.5 2.5v39.7c0 1.4-1.1 2.5-2.5 2.5z"/>
				<path class="s8" d="m355.9 405.4c-1.4 0-2.5-1.2-2.5-2.5v-12.1c0-1.4 1.1-2.5 2.5-2.5 1.4 0 2.5 1.1 2.5 2.5v12.1c0 1.3-1.1 2.5-2.5 2.5z"/>
				<path class="s8" d="m355.9 481.2c-1.4 0-2.5-1.2-2.5-2.5v-40.7c0-1.4 1.1-2.5 2.5-2.5 1.4 0 2.5 1.1 2.5 2.5v40.7c0 1.3-1.1 2.5-2.5 2.5z"/>
				<path class="s8" d="m216 421.4c-1.4 0-2.5-1.1-2.5-2.5v-49.6c0-1.4 1.1-2.5 2.5-2.5 1.3 0 2.5 1.1 2.5 2.5v49.6c0 1.4-1.2 2.5-2.5 2.5z"/>
				<path class="s8" d="m216 496.5c-1.4 0-2.5-1.1-2.5-2.5v-39.6c0-1.4 1.1-2.5 2.5-2.5 1.3 0 2.5 1.1 2.5 2.5v39.6c0 1.4-1.2 2.5-2.5 2.5z"/>
				<path class="s8" d="m291 417.3c-1.4 0-2.5-1.1-2.5-2.5v-9.3c0-1.3 1.1-2.5 2.5-2.5 1.3 0 2.5 1.2 2.5 2.5v9.3c0 1.4-1.2 2.5-2.5 2.5z"/>
				<path class="s8" d="m291 490.2c-1.4 0-2.5-1.1-2.5-2.5v-37.7c0-1.4 1.1-2.5 2.5-2.5 1.3 0 2.5 1.1 2.5 2.5v37.7c0 1.4-1.2 2.5-2.5 2.5z"/>
				<path class="s8" d="m218.2 497.5c-42.2 0-81.5-2.9-110.7-8.2-34.6-6.3-52.2-15.4-52.2-27 0-1.3 1.1-2.5 2.5-2.5 1.4 0 2.5 1.2 2.5 2.5 0 17.2 67.9 30.2 157.9 30.2 90 0 157.8-13 157.8-30.2 0-1.3 1.1-2.5 2.5-2.5 1.4 0 2.5 1.2 2.5 2.5 0 11.6-17.5 20.7-52.1 27-29.3 5.3-68.6 8.2-110.7 8.2z"/>
				<path class="s8" d="m218.2 455.2c-42.2 0-81.5-2.9-110.7-8.2-34.6-6.2-52.2-15.3-52.2-26.9 0-1.4 1.1-2.5 2.5-2.5 1.4 0 2.5 1.1 2.5 2.5 0 17.2 67.9 30.1 157.9 30.1 90 0 157.8-12.9 157.8-30.1 0-1.4 1.1-2.5 2.5-2.5 1.4 0 2.5 1.1 2.5 2.5 0 11.6-17.5 20.7-52.1 26.9-29.3 5.3-68.6 8.2-110.7 8.2z"/>
				<path class="s8" d="m218.2 421.7c-42.2 0-81.5-2.9-110.7-8.2-34.6-6.3-52.2-15.4-52.2-27 0-1.3 1.1-2.5 2.5-2.5 1.4 0 2.5 1.2 2.5 2.5 0 17.2 67.9 30.2 157.9 30.2 90 0 157.8-13 157.8-30.2 0-1.3 1.1-2.5 2.5-2.5 1.4 0 2.5 1.2 2.5 2.5 0 11.6-17.5 20.7-52.1 27-29.3 5.3-68.6 8.2-110.7 8.2z"/>
				<g>
					<path class="s8" d="m109 334.9q-0.4 0-0.8-0.2c-1.3-0.4-2-1.9-1.5-3.2 1.4-4 3.1-7.9 5.1-11.6 0.6-1.2 2.1-1.7 3.3-1.1 1.3 0.7 1.7 2.2 1.1 3.4-1.9 3.5-3.5 7.2-4.8 11-0.4 1-1.4 1.7-2.4 1.7z"/>
					<path class="s8" d="m119.2 311.9q-0.5 0-1-0.2c-1.2-0.5-1.8-2-1.3-3.2 1.6-4 3.6-7.8 5.7-11.4 0.7-1.2 2.2-1.6 3.4-0.9 1.2 0.8 1.6 2.3 0.9 3.5-2 3.4-3.8 7-5.4 10.7-0.4 0.9-1.3 1.5-2.3 1.5z"/>
					<path class="s8" d="m104.4 318.9q-0.5 0-1-0.2c-1.3-0.6-1.8-2-1.2-3.3 1.6-3.7 3.5-7.4 5.6-10.8 0.7-1.2 2.2-1.6 3.4-0.9 1.2 0.7 1.6 2.3 0.9 3.5-2 3.2-3.8 6.7-5.4 10.3-0.4 0.9-1.3 1.4-2.3 1.4z"/>
				</g>
			</g>
			<g>
				<path fill-rule="evenodd" class="s8" d="m278.9 185.1c-1.2 0-2.2-1.2-2.2-2.7 0-1.6 1-2.8 2.2-2.8 1.2 0 2.3 1.2 2.3 2.8 0 1.5-1.1 2.7-2.3 2.7z"/>
				<path fill-rule="evenodd" class="s8" d="m271.7 179.6c-1.3 0-2.3-1.2-2.3-2.7 0-1.6 1-2.8 2.3-2.8 1.2 0 2.2 1.2 2.2 2.8 0 1.5-1 2.7-2.2 2.7z"/>
				<path fill-rule="evenodd" class="s8" d="m284.4 178.1c-1.2 0-2.2-1.2-2.2-2.7 0-1.6 1-2.8 2.2-2.8 1.2 0 2.3 1.2 2.3 2.8 0 1.5-1.1 2.7-2.3 2.7z"/>
			</g>
		</g>
	</g>
</svg>